<svg width="18" height="18" viewBox="0 0 18 18" fill="none" xmlns="http://www.w3.org/2000/svg">
<path d="M7.56 8.145C7.5975 7.8975 7.68 7.68 7.785 7.5C8.01 7.08 8.3925 6.8625 8.91 6.855C9.2475 6.855 9.555 7.005 9.7725 7.2225C9.9825 7.455 10.125 7.7775 10.125 8.1H11.475C11.46 7.7475 11.3925 7.425 11.25 7.125C11.1375 6.84 10.965 6.585 10.74 6.375C9.6525 5.37 7.635 5.5125 6.7125 6.6525C5.745 7.905 5.7225 10.095 6.705 11.3475C7.6125 12.465 9.6 12.6225 10.68 11.625C10.9125 11.4375 11.1 11.205 11.25 10.935C11.37 10.665 11.4525 10.38 11.46 10.0725H10.125C10.125 10.23 10.0725 10.3725 10.005 10.5C9.9375 10.6425 9.8475 10.755 9.75 10.8525C9.5025 11.0475 9.21 11.1525 8.895 11.1525C8.625 11.145 8.4 11.0925 8.2275 10.98C8.03307 10.8707 7.87818 10.7027 7.785 10.5C7.41 9.825 7.47 8.8875 7.56 8.145ZM9 1.5C4.875 1.5 1.5 4.875 1.5 9C1.8975 18.9525 16.125 18.945 16.5 9C16.5 4.875 13.125 1.5 9 1.5ZM9 15C5.6925 15 3 12.3075 3 9C3.33 1.0425 14.67 1.0425 15 9C15 12.3075 12.3075 15 9 15Z" fill="white"/>
</svg>
