<svg width="77" height="60" viewBox="0 0 77 60" fill="none" xmlns="http://www.w3.org/2000/svg">
<path d="M42.3866 18.576C39.7788 17.97 37.0669 17.97 34.4591 18.576C32.953 17.6523 31.8031 17.2277 30.9669 17.0485C30.6099 16.968 30.2447 16.93 29.8789 16.9355C29.7124 16.94 29.5467 16.96 29.3839 16.9952L29.3626 16.9995L29.3541 17.0037H29.3477L29.6399 18.0299L29.3477 17.0059C29.1978 17.0482 29.059 17.1229 28.9411 17.2246C28.8231 17.3263 28.7289 17.4526 28.665 17.5947C28.0356 19.0042 27.9157 20.5886 28.3258 22.0768C27.2637 23.364 26.6849 24.9819 26.6895 26.6507C26.6895 29.9637 27.6666 32.1909 29.3327 33.6224C30.4997 34.6251 31.9162 35.1584 33.337 35.4635C33.1134 36.1201 33.0291 36.8162 33.0895 37.5072V38.7829C32.2213 38.9643 31.6197 38.9067 31.1909 38.7659C30.6554 38.5888 30.2437 38.2325 29.849 37.7205C29.6427 37.4445 29.4504 37.1583 29.273 36.8629L29.1514 36.6645C28.9978 36.4092 28.8385 36.1574 28.6735 35.9093C28.2682 35.3099 27.6666 34.5589 26.6938 34.3029L25.6613 34.032L25.1194 36.0971L26.1519 36.368C26.3226 36.4107 26.5445 36.5707 26.9093 37.1061C27.0497 37.3175 27.1848 37.5323 27.3146 37.7504L27.4597 37.9851C27.6602 38.3093 27.8906 38.6677 28.1573 39.0176C28.697 39.7216 29.433 40.432 30.5253 40.7925C31.2719 41.04 32.121 41.0997 33.0895 40.9504V44.9333C33.0895 45.2162 33.2019 45.4875 33.4019 45.6876C33.602 45.8876 33.8733 46 34.1562 46H42.6895C42.9724 46 43.2437 45.8876 43.4438 45.6876C43.6438 45.4875 43.7562 45.2162 43.7562 44.9333V37.3323C43.7562 36.6603 43.7263 36.0437 43.5365 35.4699C44.9509 35.1712 46.3567 34.6379 47.5173 33.6352C49.1813 32.1931 50.1562 29.9445 50.1562 26.6123V26.6101C50.1508 24.955 49.5718 23.3529 48.5178 22.0768C48.9274 20.5893 48.8075 19.0057 48.1786 17.5968C48.1152 17.4546 48.0214 17.328 47.9038 17.2259C47.7862 17.1238 47.6477 17.0487 47.4981 17.0059L47.2058 18.0299C47.4981 17.0059 47.4959 17.0059 47.4938 17.0059L47.4895 17.0037L47.481 16.9995L47.4618 16.9952C47.4091 16.9815 47.3557 16.9708 47.3018 16.9632C47.1901 16.9469 47.0775 16.9376 46.9647 16.9355C46.5989 16.9301 46.2337 16.968 45.8767 17.0485C45.0426 17.2277 43.8927 17.6523 42.3866 18.576Z" fill="white"/>
<rect x="0.5" y="0.5" width="75.382" height="59" rx="6.5" stroke="#D9D9D9"/>
</svg>
