<svg width="21" height="21" viewBox="0 0 21 21" fill="none" xmlns="http://www.w3.org/2000/svg">
<path d="M19.4497 0H1.5502C1.13906 0 0.744764 0.163325 0.454045 0.454045C0.163325 0.744764 0 1.13906 0 1.5502V19.4497C0 19.8609 0.163325 20.2552 0.454045 20.5459C0.744764 20.8366 1.13906 20.9999 1.5502 20.9999H19.4497C19.8609 20.9999 20.2552 20.8366 20.5459 20.5459C20.8366 20.2552 20.9999 19.8609 20.9999 19.4497V1.5502C20.9999 1.13906 20.8366 0.744764 20.5459 0.454045C20.2552 0.163325 19.8609 0 19.4497 0ZM6.25915 17.8893H3.10187V7.8604H6.25915V17.8893ZM4.67832 6.47061C4.32018 6.46859 3.97067 6.36053 3.67388 6.16006C3.3771 5.95959 3.14635 5.6757 3.01076 5.34421C2.87517 5.01273 2.84081 4.64851 2.91202 4.29751C2.98323 3.94652 3.15682 3.62448 3.41088 3.37205C3.66494 3.11962 3.98808 2.9481 4.33952 2.87915C4.69097 2.81019 5.05496 2.84689 5.38557 2.9846C5.71618 3.12232 5.99858 3.35489 6.19714 3.65295C6.3957 3.95101 6.50152 4.30122 6.50123 4.65936C6.50461 4.89914 6.45968 5.13715 6.36912 5.35919C6.27856 5.58123 6.14422 5.78277 5.97411 5.95179C5.804 6.12081 5.6016 6.25386 5.37898 6.34299C5.15636 6.43212 4.91807 6.47553 4.67832 6.47061ZM17.8966 17.8981H14.7408V12.4191C14.7408 10.8033 14.0539 10.3046 13.1673 10.3046C12.231 10.3046 11.3123 11.0104 11.3123 12.46V17.8981H8.15498V7.86769H11.1912V9.25748H11.2321C11.5368 8.6406 12.6043 7.58623 14.2333 7.58623C15.995 7.58623 17.8981 8.63185 17.8981 11.6943L17.8966 17.8981Z" fill="white"/>
</svg>
