<svg width="68" height="14" viewBox="0 0 68 14" fill="none" xmlns="http://www.w3.org/2000/svg">
<path d="M52.9479 13.0637H50.3296V2.36821H46.2091V0.0144408H57.1787V2.36821H52.9479V13.0637ZM50.8972 12.4909H52.3803V1.80023H56.6202V0.587238H46.7917V1.80023H50.8972V12.4909ZM64.8562 13.0637H60.6013C59.3839 13.0637 58.6227 12.8471 58.1414 12.3609C57.6601 11.8748 57.4435 11.1191 57.4435 9.90125V8.78935H59.9274V10.7147H65.6504V7.58599H61.1308C59.8071 7.58599 59.08 7.39826 58.6177 6.93617C58.1564 6.47408 57.9679 5.74725 57.9679 4.41874V3.32128C57.9679 1.98314 58.1564 1.23705 58.6087 0.746083C59.061 0.255112 59.8311 0.0192532 61.1308 0.0192532H64.6877C65.877 0.0192532 66.6131 0.206975 67.0944 0.640185C67.5758 1.0734 67.8595 1.85318 67.8595 3.04691V4.15881H65.511V2.37303H60.3365V5.23221H64.8421C66.1317 5.23221 66.8828 5.44401 67.3541 5.93498C67.8265 6.42595 67.9999 7.1239 67.9999 8.39465V9.90607C67.9999 11.172 67.8114 11.8844 67.3541 12.3657C66.8969 12.8471 66.1317 13.0637 64.8421 13.0637H64.8562ZM58.0261 9.36215V9.90125C58.0261 11.9373 58.5846 12.4909 60.6153 12.4909H64.8562C66.96 12.4909 67.4464 12.0095 67.4464 9.90125V8.38984C67.4464 6.28155 66.9651 5.79539 64.8562 5.79539H59.7689V1.80023H65.7998V2.08422H66.0836V3.5812H67.292V3.0421C67.292 2.02646 67.1185 1.41515 66.7244 1.06377C66.3293 0.712389 65.7326 0.582426 64.7067 0.582426H61.1308C60.0096 0.582426 59.3789 0.746083 59.0269 1.12635C58.6759 1.50661 58.5455 2.15161 58.5455 3.31165V4.39949C58.5455 5.55953 58.6859 6.17084 59.0269 6.51259C59.3688 6.85435 59.9896 6.99394 61.1358 6.99394H66.2089V11.2683H59.3598V9.34289L58.0261 9.36215ZM7.00356 13.0637H3.1528C1.935 13.0637 1.17929 12.8471 0.693136 12.3609C0.206978 11.8748 0 11.1383 0 9.90125V8.78935H2.48855V10.7147H7.66301V7.58599H3.15762C1.89169 7.58599 1.1793 7.39827 0.702765 6.94099C0.226234 6.48371 0 5.70393 0 4.39949V3.30202C0 2.00239 0.206977 1.23224 0.697949 0.722014C1.18892 0.211789 1.92057 0 3.15762 0H6.71476C7.97588 0 8.72678 0.187722 9.22737 0.620932C9.72797 1.05414 10.012 1.82911 10.012 3.02766V4.13956H7.66301V2.35377H2.46448V5.21296H6.96506C8.18286 5.21296 8.94338 5.42956 9.42473 5.91091C9.90607 6.39225 10.1227 7.15759 10.1227 8.37539V9.88682C10.1227 11.1046 9.91088 11.8651 9.42473 12.3465C8.93857 12.8278 8.18286 13.0637 6.96506 13.0637H7.00356ZM0.587242 9.36215V9.90125C0.587242 11.9373 1.14079 12.4909 3.17206 12.4909H7.02281C9.05409 12.4909 9.61245 11.9373 9.61245 9.90125V8.38984C9.61245 6.35375 9.05409 5.79539 7.02281 5.79539H1.89168V1.80023H7.92293V2.08422H8.21173V3.5812H9.4151V3.0421C9.4151 2.02165 9.237 1.41515 8.83267 1.06858C8.42834 0.722014 7.80259 0.587238 6.69069 0.587238H3.13355C2.07941 0.587238 1.44885 0.755708 1.08303 1.13597C0.717205 1.51623 0.548732 2.19493 0.548732 3.31646V4.39949C0.548732 6.50778 1.03008 6.99394 3.13355 6.99394H8.21173V11.2683H1.89168V9.34289L0.587242 9.36215Z" fill="white"/>
</svg>
