<svg width="12" height="14" viewBox="0 0 12 14" fill="none" xmlns="http://www.w3.org/2000/svg">
<path d="M8.67008 13.7615H3.33504C2.05077 13.7615 1.24874 13.533 0.741125 13.0203C0.233509 12.5076 0 11.7107 0 10.4213V3.48224C0 2.11168 0.218282 1.2995 0.73605 0.761425C1.25382 0.223352 2.02539 0 3.32996 0H8.67008C9.97973 0 10.7564 0.228428 11.2691 0.761425C11.7818 1.29442 12 2.11168 12 3.48224V10.4213C12 11.7107 11.7767 12.5127 11.264 13.0203C10.7513 13.528 9.95435 13.7615 8.67008 13.7615ZM3.32996 0.604064C2.21828 0.604064 1.55331 0.781726 1.16752 1.17767C0.781732 1.57361 0.604068 2.2995 0.604068 3.48224V10.4213C0.604068 12.5686 1.18782 13.1574 3.33504 13.1574H8.67008C10.8122 13.1574 11.401 12.5686 11.401 10.4213V3.48224C11.401 2.2995 11.2234 1.58883 10.8325 1.17767C10.4417 0.766497 9.78683 0.604064 8.67008 0.604064H3.32996ZM9.8376 11.8833H2.16753V1.73097H9.8376V11.8833ZM2.76651 11.2792H9.21323V2.34011H2.76651V11.2792Z" fill="white"/>
</svg>
