<svg width="12" height="14" viewBox="0 0 12 14" fill="none" xmlns="http://www.w3.org/2000/svg">
<path d="M11.9999 13.0294H7.96124L2.90998 8.22747H2.75152V13.0294H0V0.0113213H7.381C8.15532 -0.0554058 8.92563 0.174588 9.53688 0.654783C9.79898 0.934397 9.99907 1.26633 10.1241 1.62878C10.2492 1.99133 10.2962 2.37608 10.2622 2.75804V5.49515C10.2962 5.87771 10.2492 6.26336 10.1241 6.62661C9.99907 6.98986 9.79898 7.3227 9.53688 7.60321C8.92363 8.07951 8.15432 8.3075 7.381 8.24187H6.25654L11.9999 13.0294ZM8.18733 12.458H10.4342L4.70091 7.65603H7.39501C9.05668 7.65603 9.70495 7.04618 9.70495 5.48074V2.74363C9.73597 2.44081 9.70495 2.13469 9.61191 1.84467C9.51887 1.55465 9.36781 1.28684 9.16673 1.05815C8.65652 0.683993 8.02426 0.512924 7.39501 0.577951H0.576239V12.4532H2.18969V7.65123H3.15009L8.18733 12.458ZM6.59269 6.5996H2.2089V1.65359H6.59269C7.64011 1.65359 8.1053 2.13378 8.1053 3.171V5.09179C8.08629 6.13381 7.6211 6.5996 6.59269 6.5996ZM2.75152 6.03297H6.59269C7.32298 6.03297 7.55308 5.81688 7.55308 5.07258V3.1518C7.55308 2.4171 7.34199 2.19141 6.59269 2.19141H2.75152V6.03297Z" fill="white"/>
</svg>
