<svg width="350" height="437" viewBox="0 0 350 437" fill="none" xmlns="http://www.w3.org/2000/svg">
<path d="M173.845 116.514L1.31142e-06 107.334L211.85 5.49049e-05L173.845 116.514Z" fill="#C19807" fill-opacity="0.7"/>
<path d="M313.073 389.045L244.065 436.801L226.563 303.535L313.073 389.045Z" fill="#C19807" fill-opacity="0.4"/>
<path d="M347.865 237.527L325.863 260.53L304.86 214.525L347.865 237.527Z" fill="#C19807" fill-opacity="0.4"/>
<path d="M128.673 212.823L56.8317 204.367L141.091 167.747L128.673 212.823Z" fill="#C19807" fill-opacity="0.6"/>
<path d="M190.347 168.019L140.341 168.019L174.234 115.513L190.347 168.019Z" fill="#C19807" fill-opacity="0.6"/>
<path d="M128.34 213.024L140.841 168.019H190.347L128.34 213.024Z" fill="#876C0C" fill-opacity="0.3"/>
<circle cx="140.841" cy="168.519" r="3.00035" fill="#FBBC09"/>
<circle cx="189.847" cy="168.519" r="3.00035" fill="#FBBC09"/>
<circle cx="311.861" cy="389.545" r="3.00035" fill="#FBBC09"/>
<circle cx="173.845" cy="117.513" r="3.00035" fill="#FBBC09"/>
<circle cx="227.985" cy="305.61" r="3.00035" transform="rotate(-31.9935 227.985 305.61)" fill="#FBBC09"/>
<circle cx="306.995" cy="216.599" r="3.00035" transform="rotate(-31.9935 306.995 216.599)" fill="#FBBC09"/>
<circle cx="346.999" cy="238.602" r="3.00035" transform="rotate(-31.9935 346.999 238.602)" fill="#FBBC09"/>
<circle cx="325.997" cy="259.604" r="3.00035" transform="rotate(-31.9935 325.997 259.604)" fill="#FBBC09"/>
</svg>
