<svg width="792" height="381" viewBox="0 0 792 381" fill="none" xmlns="http://www.w3.org/2000/svg">
<path d="M301.071 380.185L221.135 318.196L333.801 250.833L301.071 380.185Z" fill="#C19807" fill-opacity="0.2"/>
<path d="M333.128 252.506L267.156 1.63421L402.524 195.675L333.128 252.506Z" fill="#C19807" fill-opacity="0.5"/>
<path d="M399.199 196.878L512.638 12.8924L476.068 180.889L399.199 196.878Z" fill="#C19807" fill-opacity="0.4"/>
<path d="M473.049 183.561L570.134 41.2866L600.13 77.4439L473.049 183.561Z" fill="#C19807" fill-opacity="0.45"/>
<path d="M474.803 182.174L600.13 77.444L613.297 315.111L474.803 182.174Z" fill="#C19807" fill-opacity="0.3"/>
<path d="M600.142 77.5035L792 221.423L613.411 325.484L600.142 77.5035Z" fill="#C19807" fill-opacity="0.1"/>
<path d="M399.03 196.069L531.543 342.001L475.411 180.183L399.03 196.069Z" fill="#C19807" fill-opacity="0.3"/>
<path d="M175.42 380.828L0.940742 266.433L250.821 365.145L175.42 380.828Z" fill="#C19807"/>
<path d="M267.156 1.63419L401.138 193.921L512.638 12.8926L267.156 1.63419Z" fill="#C19807" fill-opacity="0.2"/>
<circle cx="332.047" cy="252.22" r="3.00057" transform="rotate(78.2503 332.047 252.22)" fill="#FBBC09"/>
<circle cx="223.093" cy="317.789" r="3.00057" transform="rotate(78.2503 223.093 317.789)" fill="#FBBC09"/>
<circle cx="3.00125" cy="266.515" r="3.00057" transform="rotate(78.2503 3.00125 266.515)" fill="#FBBC09"/>
<circle cx="267.951" cy="3.0012" r="3.00057" transform="rotate(78.2503 267.951 3.0012)" fill="#FBBC09"/>
<circle cx="511.271" cy="13.6877" r="3.00057" transform="rotate(78.2503 511.271 13.6877)" fill="#FBBC09"/>
<circle cx="399.097" cy="196.388" r="3.00057" transform="rotate(78.2503 399.097 196.388)" fill="#FBBC09"/>
<circle cx="475.681" cy="181.481" r="3.00057" transform="rotate(78.2503 475.681 181.481)" fill="#FBBC09"/>
<circle cx="569.562" cy="43.4488" r="3.00057" transform="rotate(78.2503 569.562 43.4488)" fill="#FBBC09"/>
<circle cx="600.232" cy="77.9336" r="3.00057" transform="rotate(78.2503 600.232 77.9336)" fill="#FBBC09"/>
</svg>
