<svg width="77" height="60" viewBox="0 0 77 60" fill="none" xmlns="http://www.w3.org/2000/svg">
<path d="M46.7737 15.0157C46.6958 14.9412 43.89 15.0451 41.4484 17.3131C39.0067 19.5791 39.3824 22.1784 39.4374 22.245C39.4923 22.3117 42.9189 22.4155 45.1063 19.779C47.2936 17.1425 46.8516 15.0921 46.7737 15.0157ZM54.3643 38.015C54.2544 37.8268 49.039 35.5961 49.5246 31.3071C50.0101 27.0162 53.3611 25.8401 53.4138 25.7126C53.4665 25.5852 52.0464 24.1641 50.5415 23.4447C49.4366 22.9375 48.2138 22.6469 46.9615 22.5939C46.7142 22.588 45.8552 22.4077 44.0893 22.8213C42.9257 23.0938 40.3031 23.9759 39.5817 24.0112C38.8579 24.0464 36.7048 22.9879 34.3892 22.7076C32.9072 22.4626 31.336 22.9644 30.2114 23.3506C29.089 23.7348 26.9543 24.8286 25.4609 27.7356C23.9675 30.6406 24.7486 35.2432 25.3075 36.6742C25.8663 38.1032 26.739 40.4457 28.2232 42.155C29.5425 44.0839 31.2925 45.4227 32.0231 45.8775C32.7538 46.3322 34.8152 46.6341 36.2444 46.0088C37.3943 45.4051 39.4694 45.0581 40.2894 45.0836C41.1071 45.1091 42.7196 45.3854 44.371 46.1401C45.6789 46.5263 46.9157 46.3656 48.1549 45.9343C49.394 45.5011 51.1874 43.8584 53.2809 40.528C54.0757 38.9794 54.4376 38.1424 54.3643 38.015Z" fill="white"/>
<path d="M46.7737 15.0157C46.6958 14.9412 43.89 15.0451 41.4484 17.3131C39.0067 19.5791 39.3824 22.1784 39.4374 22.245C39.4923 22.3117 42.9189 22.4155 45.1063 19.779C47.2936 17.1425 46.8516 15.0921 46.7737 15.0157ZM54.3643 38.015C54.2544 37.8268 49.039 35.5961 49.5246 31.3071C50.0101 27.0162 53.3611 25.8401 53.4138 25.7126C53.4665 25.5852 52.0464 24.1641 50.5415 23.4447C49.4366 22.9375 48.2138 22.6469 46.9615 22.5939C46.7142 22.588 45.8552 22.4077 44.0893 22.8213C42.9257 23.0938 40.3031 23.9759 39.5817 24.0112C38.8579 24.0464 36.7048 22.9879 34.3892 22.7076C32.9072 22.4626 31.336 22.9644 30.2114 23.3506C29.089 23.7348 26.9543 24.8286 25.4609 27.7356C23.9675 30.6406 24.7486 35.2432 25.3075 36.6742C25.8663 38.1032 26.739 40.4457 28.2232 42.155C29.5425 44.0839 31.2925 45.4227 32.0231 45.8775C32.7538 46.3322 34.8152 46.6341 36.2444 46.0088C37.3943 45.4051 39.4694 45.0581 40.2894 45.0836C41.1071 45.1091 42.7196 45.3854 44.371 46.1401C45.6789 46.5263 46.9157 46.3656 48.1549 45.9343C49.394 45.5011 51.1874 43.8584 53.2809 40.528C54.0757 38.9794 54.4376 38.1424 54.3643 38.015Z" fill="white"/>
<rect x="0.5" y="0.5" width="75.382" height="59" rx="6.5" stroke="#D9D9D9"/>
</svg>
