<svg width="38" height="38" viewBox="0 0 38 38" fill="none" xmlns="http://www.w3.org/2000/svg">
<rect width="37.9999" height="37.9999" rx="18.8889" fill="#C19807"/>
<path d="M19.0031 9.65475C22.0492 9.65475 22.4068 9.66832 23.6107 9.72264C24.7242 9.77243 25.3262 9.958 25.729 10.1164C26.2631 10.3246 26.6433 10.569 27.0416 10.9673C27.4399 11.3656 27.6888 11.7458 27.8925 12.2799C28.0464 12.6828 28.2365 13.2848 28.2863 14.3982C28.3406 15.6022 28.3542 15.9597 28.3542 19.0059C28.3542 22.052 28.3406 22.4096 28.2863 23.6135C28.2365 24.727 28.0509 25.329 27.8925 25.7318C27.6843 26.2659 27.4399 26.6461 27.0416 27.0444C26.6433 27.4427 26.2631 27.6916 25.729 27.8953C25.3262 28.0492 24.7242 28.2393 23.6107 28.2891C22.4068 28.3434 22.0492 28.357 19.0031 28.357C15.9569 28.357 15.5994 28.3434 14.3954 28.2891C13.282 28.2393 12.68 28.0537 12.2771 27.8953C11.743 27.6871 11.3628 27.4427 10.9645 27.0444C10.5662 26.6461 10.3173 26.2659 10.1136 25.7318C9.95972 25.329 9.76962 24.727 9.71983 23.6135C9.66552 22.4096 9.65194 22.052 9.65194 19.0059C9.65194 15.9597 9.66552 15.6022 9.71983 14.3982C9.76962 13.2848 9.9552 12.6828 10.1136 12.2799C10.3218 11.7458 10.5662 11.3656 10.9645 10.9673C11.3628 10.569 11.743 10.3201 12.2771 10.1164C12.68 9.96253 13.282 9.77243 14.3954 9.72264C15.5994 9.6638 15.9615 9.65475 19.0031 9.65475ZM19.0031 7.59985C15.9071 7.59985 15.5179 7.61343 14.3003 7.66775C13.0873 7.72206 12.259 7.91669 11.5348 8.19731C10.7835 8.48699 10.1498 8.88077 9.51615 9.51443C8.88249 10.1481 8.49323 10.7863 8.19903 11.5331C7.91841 12.2573 7.72378 13.0856 7.66946 14.3032C7.61515 15.5162 7.60157 15.9054 7.60157 19.0013C7.60157 22.0973 7.61515 22.4865 7.66946 23.7041C7.72378 24.9171 7.91841 25.7454 8.19903 26.4741C8.48871 27.2254 8.88249 27.8591 9.51615 28.4928C10.1498 29.1264 10.788 29.5157 11.5348 29.8099C12.259 30.0905 13.0873 30.2852 14.3049 30.3395C15.5224 30.3938 15.9071 30.4074 19.0076 30.4074C22.108 30.4074 22.4928 30.3938 23.7103 30.3395C24.9233 30.2852 25.7516 30.0905 26.4804 29.8099C27.2317 29.5202 27.8654 29.1264 28.499 28.4928C29.1327 27.8591 29.522 27.2209 29.8162 26.4741C30.0968 25.7499 30.2914 24.9216 30.3457 23.7041C30.4 22.4865 30.4136 22.1018 30.4136 19.0013C30.4136 15.9009 30.4 15.5162 30.3457 14.2986C30.2914 13.0856 30.0968 12.2573 29.8162 11.5286C29.5265 10.7772 29.1327 10.1436 28.499 9.50991C27.8654 8.87624 27.2272 8.48699 26.4804 8.19278C25.7562 7.91216 24.9279 7.71753 23.7103 7.66322C22.4882 7.61343 22.099 7.59985 19.0031 7.59985Z" fill="white"/>
<path d="M19.0031 9.65475C22.0492 9.65475 22.4068 9.66832 23.6107 9.72264C24.7242 9.77243 25.3262 9.958 25.729 10.1164C26.2631 10.3246 26.6433 10.569 27.0416 10.9673C27.4399 11.3656 27.6888 11.7458 27.8925 12.2799C28.0464 12.6828 28.2365 13.2848 28.2863 14.3982C28.3406 15.6022 28.3542 15.9597 28.3542 19.0059C28.3542 22.052 28.3406 22.4096 28.2863 23.6135C28.2365 24.727 28.0509 25.329 27.8925 25.7318C27.6843 26.2659 27.4399 26.6461 27.0416 27.0444C26.6433 27.4427 26.2631 27.6916 25.729 27.8953C25.3262 28.0492 24.7242 28.2393 23.6107 28.2891C22.4068 28.3434 22.0492 28.357 19.0031 28.357C15.9569 28.357 15.5994 28.3434 14.3954 28.2891C13.282 28.2393 12.68 28.0537 12.2771 27.8953C11.743 27.6871 11.3628 27.4427 10.9645 27.0444C10.5662 26.6461 10.3173 26.2659 10.1136 25.7318C9.95972 25.329 9.76962 24.727 9.71983 23.6135C9.66552 22.4096 9.65194 22.052 9.65194 19.0059C9.65194 15.9597 9.66552 15.6022 9.71983 14.3982C9.76962 13.2848 9.9552 12.6828 10.1136 12.2799C10.3218 11.7458 10.5662 11.3656 10.9645 10.9673C11.3628 10.569 11.743 10.3201 12.2771 10.1164C12.68 9.96253 13.282 9.77243 14.3954 9.72264C15.5994 9.6638 15.9615 9.65475 19.0031 9.65475Z" fill="white"/>
<path d="M19.0031 13.1491C15.7714 13.1491 13.1462 15.7698 13.1462 19.006C13.1462 22.2423 15.7669 24.8629 19.0031 24.8629C22.2393 24.8629 24.86 22.2423 24.86 19.006C24.86 15.7698 22.2393 13.1491 19.0031 13.1491ZM19.0031 22.8035C16.9029 22.8035 15.2011 21.1017 15.2011 19.0015C15.2011 16.9014 16.9029 15.1995 19.0031 15.1995C21.1033 15.1995 22.8051 16.9014 22.8051 19.0015C22.8051 21.1017 21.1033 22.8035 19.0031 22.8035Z" fill="#C19807"/>
<path d="M25.0908 14.2806C25.8457 14.2806 26.4577 13.6686 26.4577 12.9137C26.4577 12.1587 25.8457 11.5468 25.0908 11.5468C24.3359 11.5468 23.7239 12.1587 23.7239 12.9137C23.7239 13.6686 24.3359 14.2806 25.0908 14.2806Z" fill="#C19807"/>
</svg>
