<svg width="38" height="38" viewBox="0 0 38 38" fill="none" xmlns="http://www.w3.org/2000/svg">
<rect width="37.9999" height="37.9999" rx="18.8889" fill="#C19807"/>
<path d="M32.0134 12.4738C31.7004 11.311 30.7836 10.3943 29.6209 10.0812C27.4967 9.49988 18.9998 9.49988 18.9998 9.49988C18.9998 9.49988 10.503 9.49988 8.37878 10.0589C7.23841 10.3719 6.29928 11.311 5.98624 12.4738C5.42724 14.598 5.42724 19.0029 5.42724 19.0029C5.42724 19.0029 5.42724 23.4302 5.98624 25.5321C6.29928 26.6948 7.21605 27.6116 8.37878 27.9246C10.5254 28.506 18.9998 28.506 18.9998 28.506C18.9998 28.506 27.4967 28.506 29.6209 27.947C30.7836 27.6339 31.7004 26.7172 32.0134 25.5545C32.5724 23.4302 32.5724 19.0253 32.5724 19.0253C32.5724 19.0253 32.5948 14.598 32.0134 12.4738Z" fill="white"/>
<path d="M16.2942 23.0726L23.36 19.003L16.2942 14.9335V23.0726Z" fill="#C19807"/>
</svg>
