<svg width="77" height="60" viewBox="0 0 77 60" fill="none" xmlns="http://www.w3.org/2000/svg">
<path d="M43.2167 15.0145C43.1513 14.9456 40.7955 15.0417 38.7455 17.1388C36.6955 19.234 37.0109 21.6374 37.0571 21.699C37.1032 21.7606 39.9802 21.8567 41.8167 19.4189C43.6532 16.9811 43.2821 15.0852 43.2167 15.0145ZM49.5898 36.2805C49.4975 36.1065 45.1186 34.0439 45.5263 30.0782C45.934 26.1106 48.7475 25.0231 48.7917 24.9053C48.8359 24.7875 47.6436 23.4734 46.3802 22.8083C45.4525 22.3393 44.4258 22.0706 43.3744 22.0216C43.1667 22.0162 42.4456 21.8494 40.9629 22.2319C39.9859 22.4838 37.784 23.2994 37.1782 23.3321C36.5705 23.3647 34.7628 22.3859 32.8186 22.1268C31.5744 21.9002 30.2552 22.3642 29.3109 22.7213C28.3686 23.0765 26.5763 24.0879 25.3225 26.7758C24.0686 29.4619 24.7244 33.7177 25.1936 35.0408C25.6628 36.3621 26.3955 38.528 27.6417 40.1085C28.7494 41.892 30.2186 43.13 30.8321 43.5505C31.4455 43.971 33.1763 44.2501 34.3763 43.6719C35.3417 43.1137 37.084 42.7928 37.7725 42.8164C38.459 42.84 39.8129 43.0955 41.1994 43.7933C42.2975 44.1504 43.3359 44.0018 44.3763 43.603C45.4167 43.2025 46.9225 41.6836 48.6802 38.6042C49.3475 37.1723 49.6513 36.3984 49.5898 36.2805Z" fill="white"/>
<path d="M41.7272 15.0145C41.667 14.9456 39.4997 15.0417 37.6137 17.1388C35.7277 19.234 36.0179 21.6374 36.0603 21.699C36.1028 21.7606 38.7496 21.8567 40.4392 19.4189C42.1288 16.9811 41.7874 15.0852 41.7272 15.0145ZM47.5904 36.2805C47.5055 36.1065 43.477 34.0439 43.852 30.0782C44.2271 26.1106 46.8155 25.0231 46.8562 24.9053C46.8969 24.7875 45.8 23.4734 44.6376 22.8083C43.7841 22.3393 42.8396 22.0706 41.8723 22.0216C41.6812 22.0162 41.0177 21.8494 39.6537 22.2319C38.7549 22.4838 36.7291 23.2994 36.1718 23.3321C35.6127 23.3647 33.9496 22.3859 32.1609 22.1268C31.0162 21.9002 29.8026 22.3642 28.9339 22.7213C28.0669 23.0765 26.418 24.0879 25.2645 26.7758C24.1109 29.4619 24.7142 33.7177 25.1459 35.0408C25.5776 36.3621 26.2517 38.528 27.3982 40.1085C28.4172 41.892 29.7689 43.13 30.3333 43.5505C30.8977 43.971 32.49 44.2501 33.594 43.6719C34.4822 43.1137 36.0851 42.7928 36.7185 42.8164C37.3501 42.84 38.5957 43.0955 39.8713 43.7933C40.8815 44.1504 41.8369 44.0018 42.794 43.603C43.7512 43.2025 45.1365 41.6836 46.7536 38.6042C47.3675 37.1723 47.6471 36.3984 47.5904 36.2805Z" fill="white"/>
<rect x="0.5" y="0.5" width="75.382" height="59" rx="6.5" stroke="#D9D9D9"/>
</svg>
