<svg width="11" height="14" viewBox="0 0 11 14" fill="none" xmlns="http://www.w3.org/2000/svg">
<path d="M2.81201 14H0V0.0121647H7.78592C8.61792 -0.0595331 9.44605 0.187593 10.1026 0.703559C10.3846 1.004 10.5998 1.36066 10.734 1.75011C10.8683 2.13966 10.9186 2.55308 10.8817 2.96349V5.9045C10.9187 6.31555 10.8684 6.72994 10.7341 7.12024C10.5999 7.51055 10.3847 7.86818 10.1026 8.16959C9.44412 8.68137 8.61695 8.92634 7.78592 8.85582H2.81201V14ZM0.613997 13.386H2.20317V8.22634H7.78592C8.46238 8.2932 9.1398 8.10961 9.68984 7.71038C9.90622 7.46379 10.0692 7.17517 10.1686 6.86269C10.268 6.5501 10.3018 6.22031 10.2677 5.89418V2.95317C10.3014 2.62779 10.2675 2.29886 10.168 1.98724C10.0685 1.67562 9.9058 1.38786 9.68984 1.14213C9.14109 0.740108 8.46259 0.556291 7.78592 0.626162H0.613997V13.386ZM6.90879 7.09122H2.20317V1.77677H6.90879C7.37531 1.73087 7.84269 1.85556 8.2245 2.12762C8.3924 2.2923 8.52064 2.49321 8.59932 2.71497C8.67801 2.93673 8.7051 3.17342 8.67854 3.40722V5.3163C8.67338 6.77648 7.97167 7.09122 6.90362 7.09122H6.90879ZM2.81201 6.48238H6.90879C7.78077 6.48238 8.06971 6.31211 8.06971 5.3163V3.40722C8.06971 2.59715 7.82721 2.37529 6.90879 2.37529H2.81201V6.48238Z" fill="white"/>
</svg>
