<svg width="542" height="358" viewBox="0 0 542 358" fill="none" xmlns="http://www.w3.org/2000/svg">
<path d="M190.435 249.228L124.159 213.114L235 108.5L190.435 249.228Z" fill="#C19807" fill-opacity="0.2"/>
<path d="M413.5 263.019L346.5 263.019L386 179.5L413.5 263.019Z" fill="#C19807" fill-opacity="0.7"/>
<path d="M500 197L450.5 251.5L441.427 182.15L500 197Z" fill="#C19807" fill-opacity="0.2"/>
<path d="M530 160L499.454 197.374L468.5 155.5L530 160Z" fill="#C19807"/>
<path d="M529 160.5L448 3.86021e-06L542 3.94404e-07L529 160.5Z" fill="#C19807" fill-opacity="0.05"/>
<path d="M413.5 262.545L346.5 262.545L350 286L413.5 262.545Z" fill="#C19807" fill-opacity="0.3"/>
<path d="M124.748 212.439L190.521 249.002L-4.71364e-06 357.531L124.748 212.439Z" fill="#C19807" fill-opacity="0.2"/>
<circle cx="126" cy="213.5" r="3" fill="#FBBC09"/>
<circle cx="190" cy="250.5" r="3" fill="#FBBC09"/>
<circle cx="386" cy="182.5" r="3" fill="#FBBC09"/>
<circle cx="412" cy="263.5" r="3" fill="#FBBC09"/>
<circle cx="347" cy="262.5" r="3" fill="#FBBC09"/>
<circle cx="443" cy="183.5" r="3" fill="#FBBC09"/>
<circle cx="452" cy="250.5" r="3" fill="#FBBC09"/>
<circle cx="499" cy="197.5" r="3" fill="#FBBC09"/>
</svg>
