<svg width="68" height="13" viewBox="0 0 68 13" fill="none" xmlns="http://www.w3.org/2000/svg">
<path fill-rule="evenodd" clip-rule="evenodd" d="M7.73544 1.79445V3.5889H9.5299V2.75958C9.5299 0.552886 8.70057 0 6.49388 0H2.90992C0.703232 0 0 0.68868 0 3.03602V4.12724C0 6.47458 0.688683 7.03716 2.90992 7.03716H7.7597V10.7667H1.9448V8.82676H0.0048526V9.65609C0.0048526 11.8628 0.693531 12.566 2.91477 12.566H6.79457C9.00126 12.566 9.70449 11.8725 9.70449 9.65609V8.13323C9.70449 5.92654 9.01581 5.22331 6.79457 5.22331H1.9448V1.7702L7.73544 1.79445ZM52.8149 1.79445H57.0878V0H46.6121V1.79445H50.7486V12.5709H52.8149V1.79445ZM66.05 1.79445V3.5889H67.8444V2.75958C67.8444 0.552886 67.0149 0 64.9345 0H61.3456C58.9985 0 58.4357 0.68868 58.4357 3.03602V4.12724C58.4357 6.47458 58.9843 7.03716 61.3456 7.03716H66.1955V10.7667H59.8472V8.82676H57.9072V9.65609C57.9072 11.8628 58.5963 12.566 60.8172 12.566H65.0901C67.4322 12.566 68 11.8725 68 9.65609V8.13323C68 5.92654 67.4473 5.22331 65.0901 5.22331H60.2402V1.7702L66.05 1.79445Z" fill="white"/>
</svg>
