<svg width="23" height="19" viewBox="0 0 23 19" fill="none" xmlns="http://www.w3.org/2000/svg">
<path d="M7.21624 18.7015C15.9012 18.7015 20.65 11.5049 20.65 5.26776C20.65 5.06214 20.65 4.85652 20.6402 4.6607C21.5606 3.99488 22.3635 3.16262 22.9999 2.21285C22.1579 2.58492 21.2473 2.8395 20.2877 2.957C21.2669 2.36951 22.011 1.44912 22.3635 0.342698C21.4529 0.881224 20.4444 1.27288 19.3673 1.48829C18.5057 0.5679 17.2818 0 15.9208 0C13.3163 0 11.2013 2.11494 11.2013 4.71944C11.2013 5.09152 11.2405 5.4538 11.3286 5.79649C7.40228 5.60067 3.92634 3.72072 1.59599 0.861641C1.19455 1.55683 0.959555 2.36951 0.959555 3.23115C0.959555 4.86631 1.79182 6.31544 3.0647 7.1575C2.29118 7.13791 1.56662 6.9225 0.930181 6.57001C0.930181 6.5896 0.930181 6.60918 0.930181 6.62876C0.930181 8.91994 2.55555 10.8195 4.71944 11.2601C4.32779 11.3678 3.90676 11.4265 3.47594 11.4265C3.17241 11.4265 2.87866 11.3972 2.58492 11.3384C3.1822 13.2184 4.92506 14.5794 6.99104 14.6185C5.37547 15.8816 3.33886 16.6355 1.12601 16.6355C0.744144 16.6355 0.372072 16.616 0 16.567C2.06598 17.9182 4.55299 18.7015 7.21624 18.7015Z" fill="white"/>
</svg>
